<?xml version="1.0" encoding="UTF-8" standalone="no"?>
<!-- Created with Inkscape (http://www.inkscape.org/) -->

<svg
   xmlns:dc="http://purl.org/dc/elements/1.1/"
   xmlns:cc="http://creativecommons.org/ns#"
   xmlns:rdf="http://www.w3.org/1999/02/22-rdf-syntax-ns#"
   xmlns:svg="http://www.w3.org/2000/svg"
   xmlns="http://www.w3.org/2000/svg"
   xmlns:sodipodi="http://sodipodi.sourceforge.net/DTD/sodipodi-0.dtd"
   xmlns:inkscape="http://www.inkscape.org/namespaces/inkscape"
   width="113.85601mm"
   height="18.223583mm"
   viewBox="0 0 113.85601 18.223583"
   version="1.1"
   id="svg8"
   sodipodi:docname="website_logo.svg"
   inkscape:version="0.92.2 (5c3e80d, 2017-08-06)">
  <defs
     id="defs2" />
  <sodipodi:namedview
     id="base"
     pagecolor="#ffffff"
     bordercolor="#666666"
     borderopacity="1.0"
     inkscape:pageopacity="0.0"
     inkscape:pageshadow="2"
     inkscape:zoom="3.959798"
     inkscape:cx="83.106657"
     inkscape:cy="6.9344709"
     inkscape:document-units="mm"
     inkscape:current-layer="layer1"
     showgrid="false"
     inkscape:window-width="1920"
     inkscape:window-height="1051"
     inkscape:window-x="-9"
     inkscape:window-y="-9"
     inkscape:window-maximized="1"
     fit-margin-top="0"
     fit-margin-left="0"
     fit-margin-right="0"
     fit-margin-bottom="0" />
  <metadata
     id="metadata5">
    <rdf:RDF>
      <cc:Work
         rdf:about="">
        <dc:format>image/svg+xml</dc:format>
        <dc:type
           rdf:resource="http://purl.org/dc/dcmitype/StillImage" />
        <dc:title></dc:title>
      </cc:Work>
    </rdf:RDF>
  </metadata>
  <g
     inkscape:label="Laag 1"
     inkscape:groupmode="layer"
     id="layer1"
     transform="translate(-62.314316,-140.63775)">
    <g
       aria-label="SENNE DEPROOST"
       style="font-style:normal;font-weight:normal;font-size:10.58333302px;line-height:1.25;font-family:sans-serif;letter-spacing:0px;word-spacing:0px;fill:#ffffff;fill-opacity:1;stroke:none;stroke-width:0.26458332"
       id="text3701">
      <path
         d="m 69.539821,153.58209 q -0.846666,0 -1.661583,-0.28575 -0.814916,-0.29633 -1.481666,-0.89958 l 0.963083,-1.15359 q 0.508,0.41275 1.037167,0.65617 0.53975,0.24342 1.174749,0.24342 0.508,0 0.783167,-0.17992 0.28575,-0.1905 0.28575,-0.51858 v -0.0212 q 0,-0.15875 -0.0635,-0.27517 -0.05292,-0.127 -0.22225,-0.23283 -0.15875,-0.10583 -0.455083,-0.21167 -0.28575,-0.10583 -0.751417,-0.22225 -0.560916,-0.13758 -1.016,-0.30691 -0.455083,-0.16934 -0.772583,-0.41275 -0.3175,-0.254 -0.497417,-0.62442 -0.169333,-0.37042 -0.169333,-0.92075 v -0.0212 q 0,-0.508 0.1905,-0.91016 0.1905,-0.41275 0.529167,-0.70909 0.34925,-0.29633 0.8255,-0.45508 0.47625,-0.15875 1.047749,-0.15875 0.814917,0 1.49225,0.24342 0.687917,0.24341 1.259417,0.6985 l -0.846667,1.22766 q -0.497416,-0.33866 -0.973666,-0.52916 -0.47625,-0.20109 -0.9525,-0.20109 -0.47625,0 -0.719667,0.1905 -0.232833,0.17992 -0.232833,0.45509 v 0.0212 q 0,0.17992 0.0635,0.3175 0.07408,0.127 0.254,0.23284 0.179917,0.10583 0.486833,0.20108 0.3175,0.0952 0.79375,0.22225 0.560917,0.14817 0.994833,0.33867 0.4445,0.17991 0.740834,0.4445 0.306916,0.254 0.455083,0.60325 0.15875,0.34925 0.15875,0.83608 v 0.0212 q 0,0.55033 -0.201083,0.98425 -0.201084,0.42333 -0.560917,0.71966 -0.359833,0.28575 -0.85725,0.4445 -0.497417,0.14817 -1.100667,0.14817 z"
         style="font-style:normal;font-variant:normal;font-weight:normal;font-stretch:normal;line-height:0;font-family:'Gotham Bold';-inkscape-font-specification:'Gotham Bold, ';letter-spacing:0.33602083px;word-spacing:0px;fill:#ffffff;fill-opacity:1;stroke-width:0.26458332"
         id="path6045"
         inkscape:connector-curvature="0" />
      <path
         d="m 74.02054,146.06792 h 5.588 v 1.44992 h -3.96875 v 1.50283 h 3.4925 v 1.44992 h -3.4925 v 1.55575 h 4.021667 v 1.44992 H 74.02054 Z"
         style="font-style:normal;font-variant:normal;font-weight:normal;font-stretch:normal;line-height:0;font-family:'Gotham Bold';-inkscape-font-specification:'Gotham Bold, ';letter-spacing:0.33602083px;word-spacing:0px;fill:#ffffff;fill-opacity:1;stroke-width:0.26458332"
         id="path6047"
         inkscape:connector-curvature="0" />
      <path
         d="m 81.446568,146.06792 h 1.502833 l 3.471333,4.56142 v -4.56142 h 1.608667 v 7.40834 h -1.386417 l -3.58775,-4.70959 v 4.70959 h -1.608666 z"
         style="font-style:normal;font-variant:normal;font-weight:normal;font-stretch:normal;line-height:0;font-family:'Gotham Bold';-inkscape-font-specification:'Gotham Bold, ';letter-spacing:0.33602083px;word-spacing:0px;fill:#ffffff;fill-opacity:1;stroke-width:0.26458332"
         id="path6049"
         inkscape:connector-curvature="0" />
      <path
         d="m 90.133499,146.06792 h 1.502833 l 3.471334,4.56142 v -4.56142 h 1.608666 v 7.40834 h -1.386416 l -3.58775,-4.70959 v 4.70959 h -1.608667 z"
         style="font-style:normal;font-variant:normal;font-weight:normal;font-stretch:normal;line-height:0;font-family:'Gotham Bold';-inkscape-font-specification:'Gotham Bold, ';letter-spacing:0.33602083px;word-spacing:0px;fill:#ffffff;fill-opacity:1;stroke-width:0.26458332"
         id="path6051"
         inkscape:connector-curvature="0" />
      <path
         d="m 98.820431,146.06792 h 5.587999 v 1.44992 h -3.96875 v 1.50283 h 3.4925 v 1.44992 h -3.4925 v 1.55575 h 4.02167 v 1.44992 h -5.640919 z"
         style="font-style:normal;font-variant:normal;font-weight:normal;font-stretch:normal;line-height:0;font-family:'Gotham Bold';-inkscape-font-specification:'Gotham Bold, ';letter-spacing:0.33602083px;word-spacing:0px;fill:#ffffff;fill-opacity:1;stroke-width:0.26458332"
         id="path6053"
         inkscape:connector-curvature="0" />
      <path
         d="m 112.655,152.00517 q 0.49741,0 0.91016,-0.15875 0.41275,-0.15875 0.6985,-0.45508 0.29634,-0.29633 0.45509,-0.6985 0.16933,-0.40217 0.16933,-0.89958 v -0.0212 q 0,-0.48683 -0.16933,-0.89958 -0.15875,-0.41275 -0.45509,-0.70909 -0.28575,-0.29633 -0.6985,-0.45508 -0.41275,-0.16933 -0.91016,-0.16933 h -1.25942 v 4.46616 z m -2.88925,-5.93725 h 2.88925 q 0.86783,0 1.5875,0.28575 0.73025,0.27517 1.24883,0.77259 0.52917,0.49741 0.81492,1.17475 0.28575,0.66675 0.28575,1.44991 v 0.0212 q 0,0.78317 -0.28575,1.4605 -0.28575,0.67733 -0.81492,1.17475 -0.51858,0.49742 -1.24883,0.78317 -0.71967,0.28575 -1.5875,0.28575 h -2.88925 z"
         style="font-style:normal;font-variant:normal;font-weight:normal;font-stretch:normal;line-height:0;font-family:'Gotham Bold';-inkscape-font-specification:'Gotham Bold, ';letter-spacing:0.33602083px;word-spacing:0px;fill:#ffffff;fill-opacity:1;stroke-width:0.26458332"
         id="path6055"
         inkscape:connector-curvature="0" />
      <path
         d="m 118.37,146.06792 h 5.58799 v 1.44992 h -3.96874 v 1.50283 h 3.49249 v 1.44992 h -3.49249 v 1.55575 h 4.02166 v 1.44992 H 118.37 Z"
         style="font-style:normal;font-variant:normal;font-weight:normal;font-stretch:normal;line-height:0;font-family:'Gotham Bold';-inkscape-font-specification:'Gotham Bold, ';letter-spacing:0.33602083px;word-spacing:0px;fill:#ffffff;fill-opacity:1;stroke-width:0.26458332"
         id="path6057"
         inkscape:connector-curvature="0" />
      <path
         d="m 128.71702,149.80384 q 0.61384,0 0.9525,-0.3175 0.33867,-0.32808 0.33867,-0.80433 v -0.0212 q 0,-0.55033 -0.35983,-0.83608 -0.34925,-0.28575 -0.96309,-0.28575 h -1.25941 v 2.26483 z m -2.921,-3.73592 h 3.02684 q 0.66675,0 1.18533,0.1905 0.52917,0.17992 0.889,0.51859 0.37042,0.33866 0.56092,0.81491 0.20108,0.46567 0.20108,1.03717 v 0.0212 q 0,0.64558 -0.23283,1.13241 -0.23284,0.48684 -0.64559,0.81492 -0.40216,0.32808 -0.9525,0.49742 -0.53975,0.15875 -1.16416,0.15875 h -1.23825 v 2.2225 h -1.62984 z"
         style="font-style:normal;font-variant:normal;font-weight:normal;font-stretch:normal;line-height:0;font-family:'Gotham Bold';-inkscape-font-specification:'Gotham Bold, ';letter-spacing:0.33602083px;word-spacing:0px;fill:#ffffff;fill-opacity:1;stroke-width:0.26458332"
         id="path6059"
         inkscape:connector-curvature="0" />
      <path
         d="m 136.48221,149.66626 q 0.60325,0 0.92075,-0.28575 0.32808,-0.28575 0.32808,-0.762 v -0.0212 q 0,-0.52917 -0.33866,-0.79375 -0.33867,-0.26458 -0.94192,-0.26458 h -1.61925 v 2.12725 z m -3.28083,-3.59834 h 3.38666 q 1.40759,0 2.159,0.75142 0.635,0.635 0.635,1.69333 v 0.0212 q 0,0.89958 -0.4445,1.47108 -0.43391,0.56092 -1.143,0.8255 l 1.80975,2.64584 h -1.905 l -1.5875,-2.37067 h -0.0212 -1.25942 v 2.37067 h -1.62983 z"
         style="font-style:normal;font-variant:normal;font-weight:normal;font-stretch:normal;line-height:0;font-family:'Gotham Bold';-inkscape-font-specification:'Gotham Bold, ';letter-spacing:0.33602083px;word-spacing:0px;fill:#ffffff;fill-opacity:1;stroke-width:0.26458332"
         id="path6061"
         inkscape:connector-curvature="0" />
      <path
         d="m 144.80502,152.10042 q 0.48683,0 0.89958,-0.17991 0.41275,-0.17992 0.6985,-0.49742 0.29633,-0.3175 0.45508,-0.73025 0.16934,-0.42333 0.16934,-0.89958 v -0.0212 q 0,-0.47625 -0.16934,-0.89958 -0.15875,-0.42334 -0.46566,-0.74084 -0.29634,-0.3175 -0.70909,-0.49741 -0.41275,-0.1905 -0.89958,-0.1905 -0.49742,0 -0.91017,0.17991 -0.40216,0.17992 -0.6985,0.49742 -0.28575,0.3175 -0.45508,0.74083 -0.15875,0.41275 -0.15875,0.889 v 0.0212 q 0,0.47625 0.15875,0.89958 0.16933,0.42334 0.46567,0.74084 0.30691,0.3175 0.70908,0.508 0.41275,0.17991 0.91017,0.17991 z m -0.0212,1.50284 q -0.85725,0 -1.57692,-0.29634 -0.71966,-0.30691 -1.24883,-0.81491 -0.51858,-0.51859 -0.81492,-1.2065 -0.28575,-0.6985 -0.28575,-1.49225 v -0.0212 q 0,-0.79375 0.29634,-1.48167 0.29633,-0.6985 0.81491,-1.21708 0.52917,-0.52917 1.24884,-0.8255 0.73025,-0.30692 1.5875,-0.30692 0.85725,0 1.57691,0.30692 0.71967,0.29633 1.23825,0.81492 0.52917,0.508 0.81492,1.2065 0.29633,0.68791 0.29633,1.48166 v 0.0212 q 0,0.79375 -0.29633,1.49225 -0.29633,0.68792 -0.8255,1.21708 -0.51858,0.51859 -1.24883,0.8255 -0.71967,0.29634 -1.57692,0.29634 z"
         style="font-style:normal;font-variant:normal;font-weight:normal;font-stretch:normal;line-height:0;font-family:'Gotham Bold';-inkscape-font-specification:'Gotham Bold, ';letter-spacing:0.33602083px;word-spacing:0px;fill:#ffffff;fill-opacity:1;stroke-width:0.26458332"
         id="path6063"
         inkscape:connector-curvature="0" />
      <path
         d="m 154.13274,152.10042 q 0.48683,0 0.89958,-0.17991 0.41275,-0.17992 0.6985,-0.49742 0.29633,-0.3175 0.45508,-0.73025 0.16934,-0.42333 0.16934,-0.89958 v -0.0212 q 0,-0.47625 -0.16934,-0.89958 -0.15875,-0.42334 -0.46566,-0.74084 -0.29634,-0.3175 -0.70909,-0.49741 -0.41275,-0.1905 -0.89958,-0.1905 -0.49742,0 -0.91017,0.17991 -0.40216,0.17992 -0.6985,0.49742 -0.28575,0.3175 -0.45508,0.74083 -0.15875,0.41275 -0.15875,0.889 v 0.0212 q 0,0.47625 0.15875,0.89958 0.16933,0.42334 0.46567,0.74084 0.30691,0.3175 0.70908,0.508 0.41275,0.17991 0.91017,0.17991 z m -0.0212,1.50284 q -0.85725,0 -1.57692,-0.29634 -0.71966,-0.30691 -1.24883,-0.81491 -0.51858,-0.51859 -0.81492,-1.2065 -0.28575,-0.6985 -0.28575,-1.49225 v -0.0212 q 0,-0.79375 0.29634,-1.48167 0.29633,-0.6985 0.81491,-1.21708 0.52917,-0.52917 1.24884,-0.8255 0.73025,-0.30692 1.5875,-0.30692 0.85725,0 1.57691,0.30692 0.71967,0.29633 1.23825,0.81492 0.52917,0.508 0.81492,1.2065 0.29633,0.68791 0.29633,1.48166 v 0.0212 q 0,0.79375 -0.29633,1.49225 -0.29633,0.68792 -0.8255,1.21708 -0.51858,0.51859 -1.24883,0.8255 -0.71967,0.29634 -1.57692,0.29634 z"
         style="font-style:normal;font-variant:normal;font-weight:normal;font-stretch:normal;line-height:0;font-family:'Gotham Bold';-inkscape-font-specification:'Gotham Bold, ';letter-spacing:0.33602083px;word-spacing:0px;fill:#ffffff;fill-opacity:1;stroke-width:0.26458332"
         id="path6065"
         inkscape:connector-curvature="0" />
      <path
         d="m 162.4762,153.58209 q -0.84667,0 -1.66158,-0.28575 -0.81492,-0.29633 -1.48167,-0.89958 l 0.96308,-1.15359 q 0.508,0.41275 1.03717,0.65617 0.53975,0.24342 1.17475,0.24342 0.508,0 0.78317,-0.17992 0.28575,-0.1905 0.28575,-0.51858 v -0.0212 q 0,-0.15875 -0.0635,-0.27517 -0.0529,-0.127 -0.22225,-0.23283 -0.15875,-0.10583 -0.45509,-0.21167 -0.28575,-0.10583 -0.75141,-0.22225 -0.56092,-0.13758 -1.016,-0.30691 -0.45509,-0.16934 -0.77259,-0.41275 -0.3175,-0.254 -0.49741,-0.62442 -0.16934,-0.37042 -0.16934,-0.92075 v -0.0212 q 0,-0.508 0.1905,-0.91016 0.1905,-0.41275 0.52917,-0.70909 0.34925,-0.29633 0.8255,-0.45508 0.47625,-0.15875 1.04775,-0.15875 0.81492,0 1.49225,0.24342 0.68792,0.24341 1.25942,0.6985 l -0.84667,1.22766 q -0.49742,-0.33866 -0.97367,-0.52916 -0.47625,-0.20109 -0.9525,-0.20109 -0.47625,0 -0.71966,0.1905 -0.23284,0.17992 -0.23284,0.45509 v 0.0212 q 0,0.17992 0.0635,0.3175 0.0741,0.127 0.254,0.23284 0.17992,0.10583 0.48684,0.20108 0.3175,0.0952 0.79375,0.22225 0.56091,0.14817 0.99483,0.33867 0.4445,0.17991 0.74083,0.4445 0.30692,0.254 0.45509,0.60325 0.15875,0.34925 0.15875,0.83608 v 0.0212 q 0,0.55033 -0.20109,0.98425 -0.20108,0.42333 -0.56091,0.71966 -0.35984,0.28575 -0.85725,0.4445 -0.49742,0.14817 -1.10067,0.14817 z"
         style="font-style:normal;font-variant:normal;font-weight:normal;font-stretch:normal;line-height:0;font-family:'Gotham Bold';-inkscape-font-specification:'Gotham Bold, ';letter-spacing:0.33602083px;word-spacing:0px;fill:#ffffff;fill-opacity:1;stroke-width:0.26458332"
         id="path6067"
         inkscape:connector-curvature="0" />
      <path
         d="m 168.68201,147.57076 h -2.25425 v -1.50284 h 6.13833 v 1.50284 h -2.25425 v 5.9055 h -1.62983 z"
         style="font-style:normal;font-variant:normal;font-weight:normal;font-stretch:normal;line-height:0;font-family:'Gotham Bold';-inkscape-font-specification:'Gotham Bold, ';letter-spacing:0.33602083px;word-spacing:0px;fill:#ffffff;fill-opacity:1;stroke-width:0.26458332"
         id="path6069"
         inkscape:connector-curvature="0" />
    </g>
    <flowRoot
       xml:space="preserve"
       id="flowRoot3718"
       style="font-style:normal;font-weight:normal;font-size:40px;line-height:1.25;font-family:sans-serif;letter-spacing:0px;word-spacing:0px;fill:#000000;fill-opacity:1;stroke:none"
       transform="scale(0.26458333)"><flowRegion
         id="flowRegion3720"><rect
           id="rect3722"
           width="77.781746"
           height="174.75639"
           x="384.86813"
           y="539.66168" /></flowRegion><flowPara
         id="flowPara3724"></flowPara></flowRoot>    <rect
       style="fill:none;fill-opacity:1;stroke:#ffffff;stroke-width:1.27297175;stroke-linejoin:round;stroke-miterlimit:4;stroke-dasharray:none;stroke-opacity:1"
       id="rect4552"
       width="112.58304"
       height="16.950611"
       x="62.950802"
       y="141.27423" />
  </g>
</svg>
